<svg xmlns="http://www.w3.org/2000/svg" viewBox="0 0 558.16 99.72">
    <g id="Layer" data-name="Layer">
        <path id="V" class="cls-1" d="M0,3H7.73L26.67,72.6,42.44,14.52H22.88L19.72,3H53.5L26.67,99.72Z"/>
        <path id="I" class="cls-1" d="M57.06,96.76V85.07H67.88V14.52H57.06V3H85.82V14.52H75V85.07H85.82V96.76Z"/>
        <path id="N" class="cls-1" d="M102.52,51.78v45H95.41V.39l39,47.28V3h7.12V99.33Zm31.93,10L102.52,23.26V37.78l31.93,38.55Z"/>
        <path id="L" class="cls-1" d="M155.49,3h7.11V63.35h32.47V74.27H162.6V85.84h32.47V96.76H155.49Z"/>
        <path id="A" class="cls-1" d="M226.62,0l28,96.76H198.78ZM210.15,85.19h32.93L226.62,26.47Z"/>
        <path id="N-2" class="cls-1" d="M268.6,51.78v45h-7.11V.39l39,47.28V3h7.11V99.33Zm31.93,10L268.6,23.26V37.78l31.93,38.55Z"/>
        <path id="D" class="cls-1" d="M319.79,96.76V50.11h7.11v35H338c12.91,0,22.65-14.14,22.65-35.34,0-20.95-9.74-35.08-22.65-35.08H320V3h18.17C355,3,368.34,22.1,368.34,49.73s-13.07,47-29.69,47Z"/>
        <path id="C" class="cls-1" d="M425.48,98.69c-17.86,0-31.24-20.82-31.24-48.83S407.62,1,425.48,1c8.5,0,15.85,4.75,21.26,12.85l-4.72,9c-3.4-5.39-8-9-13.22-10V32.51c4.1,2.31,7,8.35,7,16.83s-3,14.39-7,16.71V86.74c5.34-1,9.82-4.63,13.22-10l5.11,8.36C441.79,93.93,434.14,98.69,425.48,98.69Zm-3.79-12V66.18c-4.17-2.06-7.34-8.23-7.34-16.84s3.09-14.65,7.34-16.83V13c-11.83,2.57-20.1,16.83-20.1,36.88S409.86,84.17,421.69,86.74Zm-.62-37.4c0,4,1.63,6.69,4,6.69s4-2.7,4-6.69-1.62-6.68-3.94-6.68C422.7,42.66,421.07,45.36,421.07,49.34Z"/>
        <path id="M" class="cls-1" d="M478.06,14.52H463V96.76h-7.11V3h51.49v93.8h-7.12V14.52H485.17V96.76h-7.11Z"/>
        <path id="S" class="cls-1" d="M517.88,87.12,523.06,79c3.48,5.52,7.5,8.09,13.06,8.09,7.35,0,13.61-7.07,14.85-19.53-3.25,3-7,4.75-10.75,4.75-12.68,0-22-15.16-22-35.33,0-20.82,9.35-36,22-36C546.71,1,552.13,5.4,556.46,12l-5,9c-3.25-5.15-6.73-8.36-11.21-8.36-7.27,0-13.68,7.07-14.84,20.05,3.32-3.34,7.19-5.27,10.74-5.27,12.68,0,22,14.91,22,35.34s-9.36,36-22,36C528.78,98.69,522.44,94.57,517.88,87.12Zm32.7-31.87c-1.86-10.66-7.81-16.32-14.46-16.32-4,0-7.42,1.8-10.36,5.79,1.94,10.41,7.66,16.06,14.46,16.06C544.55,60.78,547.72,58.85,550.58,55.25Z"/>
    </g>
</svg>